<svg width="118" height="47" viewBox="0 0 118 47" fill="none" xmlns="http://www.w3.org/2000/svg">
<path fill-rule="evenodd" clip-rule="evenodd" d="M23.1519 0C10.3655 0 0 10.3655 0 23.1519C0 35.9383 10.3655 46.3038 23.1519 46.3038H94.8481C107.635 46.3038 118 35.9383 118 23.1519C118 10.3655 107.635 0 94.8481 0H23.1519ZM25 5C15.0589 5 7 13.0589 7 23C7 32.9411 15.0589 41 25 41H93C102.941 41 111 32.9411 111 23C111 13.0589 102.941 5 93 5H25Z" fill="#232023"/>
<rect x="67" y="20" width="34.3544" height="13.443" rx="6.72152" fill="#9957FF"/>
</svg>
