<svg width="1200" height="675" viewBox="0 0 1200 675" fill="none" xmlns="http://www.w3.org/2000/svg">
<rect width="1200" height="675" fill="#232023"/>
<path d="M420.026 216.124C422.578 216.124 424.666 216.511 426.29 217.284C427.953 218.019 429.422 218.889 430.698 219.894C431.471 220.474 432.051 220.551 432.438 220.126C432.863 219.662 433.153 218.599 433.308 216.936H434.642C434.565 218.444 434.507 220.281 434.468 222.446C434.429 224.573 434.41 227.415 434.41 230.972H433.076C432.883 229.193 432.631 227.685 432.322 226.448C432.013 225.172 431.587 224.051 431.046 223.084C430.505 222.117 429.731 221.247 428.726 220.474C427.759 219.507 426.638 218.792 425.362 218.328C424.086 217.864 422.752 217.632 421.36 217.632C419.272 217.632 417.493 218.193 416.024 219.314C414.555 220.397 413.356 221.885 412.428 223.78C411.539 225.675 410.881 227.821 410.456 230.218C410.031 232.577 409.818 235.032 409.818 237.584C409.818 240.175 410.031 242.669 410.456 245.066C410.92 247.425 411.616 249.532 412.544 251.388C413.511 253.244 414.748 254.713 416.256 255.796C417.764 256.879 419.543 257.42 421.592 257.42C422.868 257.42 424.144 257.188 425.42 256.724C426.735 256.221 427.856 255.506 428.784 254.578C430.292 253.418 431.317 251.987 431.858 250.286C432.399 248.546 432.805 246.245 433.076 243.384H434.41C434.41 247.057 434.429 250.035 434.468 252.316C434.507 254.559 434.565 256.453 434.642 258H433.308C433.153 256.337 432.883 255.293 432.496 254.868C432.148 254.443 431.549 254.501 430.698 255.042C429.267 256.047 427.74 256.937 426.116 257.71C424.531 258.445 422.481 258.812 419.968 258.812C415.869 258.812 412.273 257.981 409.18 256.318C406.125 254.655 403.747 252.258 402.046 249.126C400.345 245.994 399.494 242.224 399.494 237.816C399.494 233.485 400.364 229.696 402.104 226.448C403.883 223.2 406.299 220.667 409.354 218.85C412.447 217.033 416.005 216.124 420.026 216.124ZM460.921 216.124C465.019 216.124 468.596 216.955 471.651 218.618C474.744 220.281 477.141 222.678 478.843 225.81C480.544 228.903 481.395 232.673 481.395 237.12C481.395 241.451 480.525 245.24 478.785 248.488C477.045 251.736 474.609 254.269 471.477 256.086C468.383 257.903 464.845 258.812 460.863 258.812C456.764 258.812 453.168 257.981 450.075 256.318C447.02 254.655 444.642 252.258 442.941 249.126C441.239 245.994 440.389 242.224 440.389 237.816C440.389 233.485 441.259 229.696 442.999 226.448C444.777 223.2 447.194 220.667 450.249 218.85C453.342 217.033 456.899 216.124 460.921 216.124ZM460.689 217.168C458.523 217.168 456.629 218.038 455.005 219.778C453.419 221.518 452.182 223.915 451.293 226.97C450.442 230.025 450.017 233.563 450.017 237.584C450.017 241.683 450.5 245.259 451.467 248.314C452.472 251.33 453.806 253.669 455.469 255.332C457.17 256.956 459.045 257.768 461.095 257.768C463.26 257.768 465.135 256.898 466.721 255.158C468.345 253.418 469.582 251.021 470.433 247.966C471.322 244.873 471.767 241.335 471.767 237.352C471.767 233.215 471.264 229.638 470.259 226.622C469.292 223.606 467.958 221.286 466.257 219.662C464.594 217.999 462.738 217.168 460.689 217.168ZM506.913 216.124C511.011 216.124 514.588 216.955 517.643 218.618C520.736 220.281 523.133 222.678 524.835 225.81C526.536 228.903 527.387 232.673 527.387 237.12C527.387 241.451 526.517 245.24 524.777 248.488C523.037 251.736 520.601 254.269 517.469 256.086C514.375 257.903 510.837 258.812 506.855 258.812C502.756 258.812 499.16 257.981 496.067 256.318C493.012 254.655 490.634 252.258 488.933 249.126C487.231 245.994 486.381 242.224 486.381 237.816C486.381 233.485 487.251 229.696 488.991 226.448C490.769 223.2 493.186 220.667 496.241 218.85C499.334 217.033 502.891 216.124 506.913 216.124ZM506.681 217.168C504.515 217.168 502.621 218.038 500.997 219.778C499.411 221.518 498.174 223.915 497.285 226.97C496.434 230.025 496.009 233.563 496.009 237.584C496.009 241.683 496.492 245.259 497.459 248.314C498.464 251.33 499.798 253.669 501.461 255.332C503.162 256.956 505.037 257.768 507.087 257.768C509.252 257.768 511.127 256.898 512.713 255.158C514.337 253.418 515.574 251.021 516.425 247.966C517.314 244.873 517.759 241.335 517.759 237.352C517.759 233.215 517.256 229.638 516.251 226.622C515.284 223.606 513.95 221.286 512.249 219.662C510.586 217.999 508.73 217.168 506.681 217.168ZM549.668 216.936V218.096C548.353 218.135 547.348 218.289 546.652 218.56C545.994 218.792 545.55 219.256 545.318 219.952C545.086 220.609 544.97 221.653 544.97 223.084V252.548C544.97 253.747 545.047 254.636 545.202 255.216C545.395 255.796 545.743 256.183 546.246 256.376C546.787 256.569 547.58 256.666 548.624 256.666H551.466C552.78 256.666 554.018 256.357 555.178 255.738C556.338 255.119 557.382 254.249 558.31 253.128C559.238 251.968 560.011 250.595 560.63 249.01C561.248 247.425 561.712 245.665 562.022 243.732H563.356C563.24 245.047 563.182 246.748 563.182 248.836C563.182 249.725 563.201 251.021 563.24 252.722C563.278 254.423 563.394 256.183 563.588 258C561.616 257.923 559.392 257.884 556.918 257.884C554.443 257.845 552.239 257.826 550.306 257.826C549.339 257.826 548.102 257.826 546.594 257.826C545.086 257.826 543.462 257.845 541.722 257.884C539.982 257.884 538.222 257.903 536.444 257.942C534.665 257.942 532.983 257.961 531.398 258V256.84C532.635 256.763 533.563 256.608 534.182 256.376C534.8 256.144 535.206 255.68 535.4 254.984C535.632 254.288 535.748 253.244 535.748 251.852V223.084C535.748 221.653 535.632 220.609 535.4 219.952C535.206 219.256 534.781 218.792 534.124 218.56C533.505 218.289 532.596 218.135 531.398 218.096V216.936C532.364 216.975 533.66 217.013 535.284 217.052C536.946 217.091 538.706 217.11 540.562 217.11C542.263 217.11 543.926 217.091 545.55 217.052C547.212 217.013 548.585 216.975 549.668 216.936ZM585.125 216.936V218.096C583.81 218.135 582.805 218.289 582.109 218.56C581.451 218.792 581.007 219.256 580.775 219.952C580.543 220.609 580.427 221.653 580.427 223.084V252.548C580.427 253.747 580.504 254.636 580.659 255.216C580.852 255.796 581.2 256.183 581.703 256.376C582.244 256.569 583.037 256.666 584.081 256.666H586.923C588.237 256.666 589.475 256.357 590.635 255.738C591.795 255.119 592.839 254.249 593.767 253.128C594.695 251.968 595.468 250.595 596.087 249.01C596.705 247.425 597.169 245.665 597.479 243.732H598.813C598.697 245.047 598.639 246.748 598.639 248.836C598.639 249.725 598.658 251.021 598.697 252.722C598.735 254.423 598.851 256.183 599.045 258C597.073 257.923 594.849 257.884 592.375 257.884C589.9 257.845 587.696 257.826 585.763 257.826C584.796 257.826 583.559 257.826 582.051 257.826C580.543 257.826 578.919 257.845 577.179 257.884C575.439 257.884 573.679 257.903 571.901 257.942C570.122 257.942 568.44 257.961 566.855 258V256.84C568.092 256.763 569.02 256.608 569.639 256.376C570.257 256.144 570.663 255.68 570.857 254.984C571.089 254.288 571.205 253.244 571.205 251.852V223.084C571.205 221.653 571.089 220.609 570.857 219.952C570.663 219.256 570.238 218.792 569.581 218.56C568.962 218.289 568.053 218.135 566.855 218.096V216.936C567.821 216.975 569.117 217.013 570.741 217.052C572.403 217.091 574.163 217.11 576.019 217.11C577.72 217.11 579.383 217.091 581.007 217.052C582.669 217.013 584.042 216.975 585.125 216.936ZM621.684 216.82L635.778 253.128C636.319 254.52 636.919 255.487 637.576 256.028C638.272 256.531 638.891 256.801 639.432 256.84V258C638.272 257.923 636.899 257.884 635.314 257.884C633.767 257.845 632.201 257.826 630.616 257.826C628.837 257.826 627.155 257.845 625.57 257.884C623.985 257.884 622.728 257.923 621.8 258V256.84C623.772 256.763 625.009 256.434 625.512 255.854C626.053 255.235 625.937 253.94 625.164 251.968L615.304 224.998L616.348 223.49L607.532 246.458C606.681 248.585 606.159 250.325 605.966 251.678C605.811 253.031 605.908 254.075 606.256 254.81C606.643 255.545 607.242 256.067 608.054 256.376C608.905 256.647 609.91 256.801 611.07 256.84V258C609.794 257.923 608.576 257.884 607.416 257.884C606.256 257.845 605.077 257.826 603.878 257.826C603.027 257.826 602.215 257.845 601.442 257.884C600.707 257.884 600.05 257.923 599.47 258V256.84C600.282 256.685 601.113 256.163 601.964 255.274C602.815 254.385 603.646 252.877 604.458 250.75L617.682 216.82C618.301 216.859 618.958 216.878 619.654 216.878C620.389 216.878 621.065 216.859 621.684 216.82ZM625.744 241.296V242.456H608.46L609.04 241.296H625.744ZM639.865 216.936C640.87 216.975 642.185 217.013 643.809 217.052C645.433 217.091 647.057 217.11 648.681 217.11C650.537 217.11 652.335 217.091 654.075 217.052C655.815 217.013 657.052 216.994 657.787 216.994C662.581 216.994 666.158 217.845 668.517 219.546C670.914 221.247 672.113 223.432 672.113 226.1C672.113 227.453 671.707 228.826 670.895 230.218C670.083 231.61 668.826 232.847 667.125 233.93C665.423 235.013 663.219 235.805 660.513 236.308V236.424C664.147 236.695 667.028 237.352 669.155 238.396C671.281 239.44 672.809 240.697 673.737 242.166C674.665 243.635 675.129 245.163 675.129 246.748C675.129 249.184 674.491 251.233 673.215 252.896C671.939 254.559 670.102 255.835 667.705 256.724C665.307 257.575 662.446 258 659.121 258C658.193 258 656.859 257.981 655.119 257.942C653.379 257.865 651.271 257.826 648.797 257.826C647.095 257.826 645.433 257.845 643.809 257.884C642.185 257.884 640.87 257.923 639.865 258V256.84C641.102 256.763 642.03 256.608 642.649 256.376C643.267 256.144 643.673 255.68 643.867 254.984C644.099 254.288 644.215 253.244 644.215 251.852V223.084C644.215 221.653 644.099 220.609 643.867 219.952C643.673 219.256 643.248 218.792 642.591 218.56C641.972 218.289 641.063 218.135 639.865 218.096V216.936ZM657.033 218.096C655.525 218.096 654.539 218.425 654.075 219.082C653.649 219.739 653.437 221.073 653.437 223.084V251.852C653.437 253.205 653.533 254.23 653.727 254.926C653.959 255.622 654.345 256.086 654.887 256.318C655.467 256.55 656.317 256.666 657.439 256.666C660.223 256.666 662.253 255.796 663.529 254.056C664.843 252.277 665.501 249.764 665.501 246.516C665.501 243.539 664.747 241.238 663.239 239.614C661.769 237.99 659.314 237.178 655.873 237.178H650.943C650.943 237.178 650.943 237.023 650.943 236.714C650.943 236.366 650.943 236.192 650.943 236.192H655.931C657.748 236.192 659.14 235.767 660.107 234.916C661.073 234.027 661.75 232.867 662.137 231.436C662.523 229.967 662.717 228.401 662.717 226.738C662.717 223.877 662.272 221.731 661.383 220.3C660.493 218.831 659.043 218.096 657.033 218.096ZM699.887 216.124C703.986 216.124 707.563 216.955 710.617 218.618C713.711 220.281 716.108 222.678 717.809 225.81C719.511 228.903 720.361 232.673 720.361 237.12C720.361 241.451 719.491 245.24 717.751 248.488C716.011 251.736 713.575 254.269 710.443 256.086C707.35 257.903 703.812 258.812 699.829 258.812C695.731 258.812 692.135 257.981 689.041 256.318C685.987 254.655 683.609 252.258 681.907 249.126C680.206 245.994 679.355 242.224 679.355 237.816C679.355 233.485 680.225 229.696 681.965 226.448C683.744 223.2 686.161 220.667 689.215 218.85C692.309 217.033 695.866 216.124 699.887 216.124ZM699.655 217.168C697.49 217.168 695.595 218.038 693.971 219.778C692.386 221.518 691.149 223.915 690.259 226.97C689.409 230.025 688.983 233.563 688.983 237.584C688.983 241.683 689.467 245.259 690.433 248.314C691.439 251.33 692.773 253.669 694.435 255.332C696.137 256.956 698.012 257.768 700.061 257.768C702.227 257.768 704.102 256.898 705.687 255.158C707.311 253.418 708.549 251.021 709.399 247.966C710.289 244.873 710.733 241.335 710.733 237.352C710.733 233.215 710.231 229.638 709.225 226.622C708.259 223.606 706.925 221.286 705.223 219.662C703.561 217.999 701.705 217.168 699.655 217.168ZM724.372 216.936C725.339 216.975 726.634 217.013 728.258 217.052C729.921 217.091 731.564 217.11 733.188 217.11C735.044 217.11 736.842 217.091 738.582 217.052C740.322 217.013 741.56 216.994 742.294 216.994C745.89 216.994 748.868 217.4 751.226 218.212C753.624 218.985 755.402 220.126 756.562 221.634C757.761 223.142 758.36 224.959 758.36 227.086C758.36 228.401 758.09 229.735 757.548 231.088C757.007 232.403 756.079 233.64 754.764 234.8C753.488 235.921 751.729 236.83 749.486 237.526C747.244 238.183 744.421 238.512 741.018 238.512H735.45V237.352H740.438C742.72 237.352 744.44 236.927 745.6 236.076C746.799 235.187 747.611 234.027 748.036 232.596C748.5 231.127 748.732 229.503 748.732 227.724C748.732 224.669 748.191 222.311 747.108 220.648C746.026 218.947 744.17 218.096 741.54 218.096C740.032 218.096 739.046 218.425 738.582 219.082C738.157 219.739 737.944 221.073 737.944 223.084V251.852C737.944 253.244 738.041 254.288 738.234 254.984C738.466 255.68 738.892 256.144 739.51 256.376C740.129 256.608 741.057 256.763 742.294 256.84V258C741.25 257.923 739.936 257.884 738.35 257.884C736.765 257.845 735.16 257.826 733.536 257.826C731.68 257.826 729.921 257.845 728.258 257.884C726.634 257.884 725.339 257.923 724.372 258V256.84C725.61 256.763 726.538 256.608 727.156 256.376C727.775 256.144 728.181 255.68 728.374 254.984C728.606 254.288 728.722 253.244 728.722 251.852V223.084C728.722 221.653 728.606 220.609 728.374 219.952C728.181 219.256 727.756 218.792 727.098 218.56C726.48 218.289 725.571 218.135 724.372 218.096V216.936ZM735.334 237.526C736.997 237.565 738.428 237.642 739.626 237.758C740.864 237.874 741.946 237.99 742.874 238.106C743.802 238.183 744.634 238.241 745.368 238.28C748.887 238.589 751.478 239.343 753.14 240.542C754.842 241.741 755.944 243.539 756.446 245.936L757.78 251.91C758.128 253.457 758.496 254.539 758.882 255.158C759.269 255.777 759.83 256.086 760.564 256.086C761.067 256.047 761.473 255.931 761.782 255.738C762.13 255.506 762.498 255.177 762.884 254.752L763.696 255.448C762.652 256.647 761.531 257.497 760.332 258C759.134 258.541 757.684 258.812 755.982 258.812C753.894 258.812 752.174 258.367 750.82 257.478C749.467 256.589 748.578 254.945 748.152 252.548L747.108 246.748C746.838 245.124 746.509 243.713 746.122 242.514C745.736 241.277 745.194 240.31 744.498 239.614C743.841 238.879 742.913 238.512 741.714 238.512H735.45L735.334 237.526ZM783.903 216.82L797.997 253.128C798.538 254.52 799.137 255.487 799.795 256.028C800.491 256.531 801.109 256.801 801.651 256.84V258C800.491 257.923 799.118 257.884 797.533 257.884C795.986 257.845 794.42 257.826 792.835 257.826C791.056 257.826 789.374 257.845 787.789 257.884C786.203 257.884 784.947 257.923 784.019 258V256.84C785.991 256.763 787.228 256.434 787.731 255.854C788.272 255.235 788.156 253.94 787.383 251.968L777.523 224.998L778.567 223.49L769.751 246.458C768.9 248.585 768.378 250.325 768.185 251.678C768.03 253.031 768.127 254.075 768.475 254.81C768.861 255.545 769.461 256.067 770.273 256.376C771.123 256.647 772.129 256.801 773.289 256.84V258C772.013 257.923 770.795 257.884 769.635 257.884C768.475 257.845 767.295 257.826 766.097 257.826C765.246 257.826 764.434 257.845 763.661 257.884C762.926 257.884 762.269 257.923 761.689 258V256.84C762.501 256.685 763.332 256.163 764.183 255.274C765.033 254.385 765.865 252.877 766.677 250.75L779.901 216.82C780.519 216.859 781.177 216.878 781.873 216.878C782.607 216.878 783.284 216.859 783.903 216.82ZM787.963 241.296V242.456H770.679L771.259 241.296H787.963ZM834.572 216.936C834.417 218.908 834.301 220.803 834.224 222.62C834.185 224.437 834.166 225.829 834.166 226.796C834.166 227.647 834.185 228.459 834.224 229.232C834.263 230.005 834.301 230.663 834.34 231.204H833.006C832.387 227.956 831.595 225.385 830.628 223.49C829.7 221.595 828.579 220.261 827.264 219.488C825.949 218.676 824.403 218.27 822.624 218.27H821.29V251.388C821.29 252.935 821.445 254.095 821.754 254.868C822.102 255.641 822.721 256.163 823.61 256.434C824.499 256.666 825.795 256.801 827.496 256.84V258C826.297 257.961 824.693 257.923 822.682 257.884C820.71 257.845 818.641 257.826 816.476 257.826C814.349 257.826 812.339 257.845 810.444 257.884C808.549 257.923 807.022 257.961 805.862 258V256.84C807.602 256.801 808.917 256.666 809.806 256.434C810.695 256.163 811.295 255.641 811.604 254.868C811.913 254.095 812.068 252.935 812.068 251.388V218.27H810.792C809.013 218.27 807.467 218.676 806.152 219.488C804.837 220.261 803.716 221.595 802.788 223.49C801.86 225.346 801.048 227.917 800.352 231.204H799.018C799.095 230.663 799.134 230.005 799.134 229.232C799.173 228.459 799.192 227.647 799.192 226.796C799.192 225.829 799.153 224.437 799.076 222.62C799.037 220.803 798.941 218.908 798.786 216.936C800.565 216.975 802.498 217.013 804.586 217.052C806.713 217.091 808.839 217.11 810.966 217.11C813.093 217.11 815.007 217.11 816.708 217.11C818.448 217.11 820.362 217.11 822.45 217.11C824.577 217.11 826.703 217.091 828.83 217.052C830.957 217.013 832.871 216.975 834.572 216.936ZM859.104 216.124C863.203 216.124 866.779 216.955 869.834 218.618C872.927 220.281 875.325 222.678 877.026 225.81C878.727 228.903 879.578 232.673 879.578 237.12C879.578 241.451 878.708 245.24 876.968 248.488C875.228 251.736 872.792 254.269 869.66 256.086C866.567 257.903 863.029 258.812 859.046 258.812C854.947 258.812 851.351 257.981 848.258 256.318C845.203 254.655 842.825 252.258 841.124 249.126C839.423 245.994 838.572 242.224 838.572 237.816C838.572 233.485 839.442 229.696 841.182 226.448C842.961 223.2 845.377 220.667 848.432 218.85C851.525 217.033 855.083 216.124 859.104 216.124ZM858.872 217.168C856.707 217.168 854.812 218.038 853.188 219.778C851.603 221.518 850.365 223.915 849.476 226.97C848.625 230.025 848.2 233.563 848.2 237.584C848.2 241.683 848.683 245.259 849.65 248.314C850.655 251.33 851.989 253.669 853.652 255.332C855.353 256.956 857.229 257.768 859.278 257.768C861.443 257.768 863.319 256.898 864.904 255.158C866.528 253.418 867.765 251.021 868.616 247.966C869.505 244.873 869.95 241.335 869.95 237.352C869.95 233.215 869.447 229.638 868.442 226.622C867.475 223.606 866.141 221.286 864.44 219.662C862.777 217.999 860.921 217.168 858.872 217.168ZM883.589 216.936C884.556 216.975 885.851 217.013 887.475 217.052C889.138 217.091 890.781 217.11 892.405 217.11C894.261 217.11 896.059 217.091 897.799 217.052C899.539 217.013 900.777 216.994 901.511 216.994C905.107 216.994 908.085 217.4 910.443 218.212C912.841 218.985 914.619 220.126 915.779 221.634C916.978 223.142 917.577 224.959 917.577 227.086C917.577 228.401 917.307 229.735 916.765 231.088C916.224 232.403 915.296 233.64 913.981 234.8C912.705 235.921 910.946 236.83 908.703 237.526C906.461 238.183 903.638 238.512 900.235 238.512H894.667V237.352H899.655C901.937 237.352 903.657 236.927 904.817 236.076C906.016 235.187 906.828 234.027 907.253 232.596C907.717 231.127 907.949 229.503 907.949 227.724C907.949 224.669 907.408 222.311 906.325 220.648C905.243 218.947 903.387 218.096 900.757 218.096C899.249 218.096 898.263 218.425 897.799 219.082C897.374 219.739 897.161 221.073 897.161 223.084V251.852C897.161 253.244 897.258 254.288 897.451 254.984C897.683 255.68 898.109 256.144 898.727 256.376C899.346 256.608 900.274 256.763 901.511 256.84V258C900.467 257.923 899.153 257.884 897.567 257.884C895.982 257.845 894.377 257.826 892.753 257.826C890.897 257.826 889.138 257.845 887.475 257.884C885.851 257.884 884.556 257.923 883.589 258V256.84C884.827 256.763 885.755 256.608 886.373 256.376C886.992 256.144 887.398 255.68 887.591 254.984C887.823 254.288 887.939 253.244 887.939 251.852V223.084C887.939 221.653 887.823 220.609 887.591 219.952C887.398 219.256 886.973 218.792 886.315 218.56C885.697 218.289 884.788 218.135 883.589 218.096V216.936ZM894.551 237.526C896.214 237.565 897.645 237.642 898.843 237.758C900.081 237.874 901.163 237.99 902.091 238.106C903.019 238.183 903.851 238.241 904.585 238.28C908.104 238.589 910.695 239.343 912.357 240.542C914.059 241.741 915.161 243.539 915.663 245.936L916.997 251.91C917.345 253.457 917.713 254.539 918.099 255.158C918.486 255.777 919.047 256.086 919.781 256.086C920.284 256.047 920.69 255.931 920.999 255.738C921.347 255.506 921.715 255.177 922.101 254.752L922.913 255.448C921.869 256.647 920.748 257.497 919.549 258C918.351 258.541 916.901 258.812 915.199 258.812C913.111 258.812 911.391 258.367 910.037 257.478C908.684 256.589 907.795 254.945 907.369 252.548L906.325 246.748C906.055 245.124 905.726 243.713 905.339 242.514C904.953 241.277 904.411 240.31 903.715 239.614C903.058 238.879 902.13 238.512 900.931 238.512H894.667L894.551 237.526ZM938.247 216.182C940.529 216.182 942.288 216.433 943.525 216.936C944.763 217.4 945.826 217.903 946.715 218.444C947.179 218.715 947.547 218.927 947.817 219.082C948.127 219.198 948.417 219.256 948.687 219.256C949.074 219.256 949.345 219.043 949.499 218.618C949.693 218.193 949.847 217.555 949.963 216.704H951.297C951.259 217.439 951.201 218.328 951.123 219.372C951.085 220.377 951.046 221.711 951.007 223.374C951.007 225.037 951.007 227.221 951.007 229.928H949.673C949.519 227.917 949.055 225.965 948.281 224.07C947.508 222.175 946.406 220.629 944.975 219.43C943.583 218.193 941.863 217.574 939.813 217.574C937.957 217.574 936.43 218.096 935.231 219.14C934.033 220.184 933.433 221.634 933.433 223.49C933.433 225.037 933.82 226.371 934.593 227.492C935.367 228.575 936.488 229.638 937.957 230.682C939.465 231.726 941.283 232.983 943.409 234.452C945.265 235.651 946.928 236.849 948.397 238.048C949.867 239.247 951.046 240.6 951.935 242.108C952.825 243.616 953.269 245.414 953.269 247.502C953.269 250.054 952.593 252.161 951.239 253.824C949.925 255.487 948.185 256.743 946.019 257.594C943.854 258.406 941.476 258.812 938.885 258.812C936.488 258.812 934.574 258.58 933.143 258.116C931.713 257.652 930.514 257.169 929.547 256.666C928.697 256.125 928.039 255.854 927.575 255.854C927.189 255.854 926.899 256.067 926.705 256.492C926.551 256.917 926.415 257.555 926.299 258.406H924.965C925.043 257.478 925.081 256.395 925.081 255.158C925.12 253.921 925.139 252.316 925.139 250.344C925.178 248.333 925.197 245.801 925.197 242.746H926.531C926.686 245.298 927.111 247.695 927.807 249.938C928.542 252.142 929.644 253.921 931.113 255.274C932.621 256.627 934.613 257.304 937.087 257.304C938.441 257.304 939.639 257.072 940.683 256.608C941.766 256.105 942.636 255.371 943.293 254.404C943.951 253.437 944.279 252.239 944.279 250.808C944.279 249.184 943.893 247.773 943.119 246.574C942.385 245.375 941.36 244.254 940.045 243.21C938.769 242.166 937.281 241.103 935.579 240.02C933.762 238.821 932.061 237.623 930.475 236.424C928.89 235.225 927.614 233.853 926.647 232.306C925.719 230.759 925.255 228.923 925.255 226.796C925.255 224.36 925.855 222.369 927.053 220.822C928.291 219.237 929.895 218.077 931.867 217.342C933.878 216.569 936.005 216.182 938.247 216.182Z" fill="#F9F8F6"/>
<path fill-rule="evenodd" clip-rule="evenodd" d="M279.152 212C266.365 212 256 222.365 256 235.152C256 247.938 266.365 258.304 279.152 258.304H350.848C363.635 258.304 374 247.938 374 235.152C374 222.365 363.635 212 350.848 212H279.152ZM281 217C271.059 217 263 225.059 263 235C263 244.941 271.059 253 281 253H349C358.941 253 367 244.941 367 235C367 225.059 358.941 217 349 217H281Z" fill="white"/>
<rect x="323" y="232" width="34.3544" height="13.443" rx="6.72152" fill="#9957FF"/>
<path d="M510.262 604.256C510.02 602.76 508.766 601.88 507.38 601.88C505.246 601.88 504.014 603.486 504.014 606.17C504.014 608.854 505.246 610.46 507.38 610.46C508.832 610.46 510.086 609.514 510.35 607.864L512.352 607.996C511.978 610.636 509.844 612.264 507.38 612.264C504.146 612.264 502.034 609.888 502.034 606.17C502.034 602.452 504.146 600.076 507.38 600.076C509.756 600.076 511.934 601.616 512.242 604.124L510.262 604.256ZM519.54 612.264C516.306 612.264 514.194 609.888 514.194 606.17C514.194 602.452 516.306 600.076 519.54 600.076C522.774 600.076 524.886 602.452 524.886 606.17C524.886 609.888 522.774 612.264 519.54 612.264ZM516.174 606.17C516.174 608.854 517.406 610.46 519.54 610.46C521.674 610.46 522.906 608.854 522.906 606.17C522.906 603.486 521.674 601.88 519.54 601.88C517.406 601.88 516.174 603.486 516.174 606.17ZM532.302 612.264C529.068 612.264 526.956 609.888 526.956 606.17C526.956 602.452 529.068 600.076 532.302 600.076C535.536 600.076 537.648 602.452 537.648 606.17C537.648 609.888 535.536 612.264 532.302 612.264ZM528.936 606.17C528.936 608.854 530.168 610.46 532.302 610.46C534.436 610.46 535.668 608.854 535.668 606.17C535.668 603.486 534.436 601.88 532.302 601.88C530.168 601.88 528.936 603.486 528.936 606.17ZM540.444 596.38H542.336V609.624C542.336 610.108 542.556 610.328 543.04 610.328H544.052V612H542.732C541.368 612 540.444 611.076 540.444 609.712V596.38ZM546.696 596.38H548.588V609.624C548.588 610.108 548.808 610.328 549.292 610.328H550.304V612H548.984C547.62 612 546.696 611.076 546.696 609.712V596.38ZM552.42 603.772C552.882 601.506 554.708 600.076 557.194 600.076C560.208 600.076 561.902 601.836 561.902 604.96V609.624C561.902 610.108 562.122 610.328 562.606 610.328H563.09V612H562.276C561.088 612 560.032 611.626 560.032 610.218C559.548 611.274 558.272 612.264 556.424 612.264C554.114 612.264 552.222 611.032 552.222 608.942C552.222 606.522 554.026 605.928 556.622 605.422L560.01 604.762C559.988 602.826 559.064 601.88 557.194 601.88C555.742 601.88 554.774 602.606 554.421 603.926L552.42 603.772ZM554.202 608.942C554.202 609.844 554.972 610.592 556.666 610.592C558.558 610.592 560.054 609.272 560.054 606.544V606.434L557.326 606.918C555.61 607.226 554.202 607.314 554.202 608.942ZM565.623 596.38H567.515V601.836C568.153 600.758 569.517 600.076 571.079 600.076C574.115 600.076 576.007 602.43 576.007 606.17C576.007 609.91 574.115 612.264 571.079 612.264C569.451 612.264 568.043 611.538 567.405 610.372L567.339 612H565.623V596.38ZM567.339 606.17C567.339 608.81 568.637 610.46 570.683 610.46C572.729 610.46 574.027 608.81 574.027 606.17C574.027 603.486 572.729 601.792 570.683 601.792C568.637 601.792 567.339 603.486 567.339 606.17ZM583.413 612.264C580.179 612.264 578.067 609.888 578.067 606.17C578.067 602.452 580.179 600.076 583.413 600.076C586.647 600.076 588.759 602.452 588.759 606.17C588.759 609.888 586.647 612.264 583.413 612.264ZM580.047 606.17C580.047 608.854 581.279 610.46 583.413 610.46C585.547 610.46 586.779 608.854 586.779 606.17C586.779 603.486 585.547 601.88 583.413 601.88C581.279 601.88 580.047 603.486 580.047 606.17ZM591.448 600.34H593.12L593.186 602.43C593.56 601 594.418 600.34 595.936 600.34H597.08V602.012H595.936C594.154 602.012 593.34 603.046 593.34 605.048V612H591.448V600.34ZM598.912 603.772C599.374 601.506 601.2 600.076 603.686 600.076C606.7 600.076 608.394 601.836 608.394 604.96V609.624C608.394 610.108 608.614 610.328 609.098 610.328H609.582V612H608.768C607.58 612 606.524 611.626 606.524 610.218C606.04 611.274 604.764 612.264 602.916 612.264C600.606 612.264 598.714 611.032 598.714 608.942C598.714 606.522 600.518 605.928 603.114 605.422L606.502 604.762C606.48 602.826 605.556 601.88 603.686 601.88C602.234 601.88 601.266 602.606 600.914 603.926L598.912 603.772ZM600.694 608.942C600.694 609.844 601.464 610.592 603.158 610.592C605.05 610.592 606.546 609.272 606.546 606.544V606.434L603.818 606.918C602.102 607.226 600.694 607.314 600.694 608.942ZM612.164 597.7H614.056V600.34H617.18V602.012H614.056V608.876C614.056 609.844 614.518 610.328 615.442 610.328H617.136V612H615.442C613.33 612 612.164 610.878 612.164 608.876V602.012H610.47V600.34H612.164V597.7ZM624.062 612.264C620.828 612.264 618.716 609.888 618.716 606.17C618.716 602.452 620.828 600.076 624.062 600.076C627.296 600.076 629.408 602.452 629.408 606.17C629.408 609.888 627.296 612.264 624.062 612.264ZM620.696 606.17C620.696 608.854 621.928 610.46 624.062 610.46C626.196 610.46 627.428 608.854 627.428 606.17C627.428 603.486 626.196 601.88 624.062 601.88C621.928 601.88 620.696 603.486 620.696 606.17ZM632.096 600.34H633.768L633.834 602.43C634.208 601 635.066 600.34 636.584 600.34H637.728V602.012H636.584C634.802 602.012 633.988 603.046 633.988 605.048V612H632.096V600.34ZM646.325 603.948C646.061 602.65 644.763 601.88 643.487 601.88C642.211 601.88 641.177 602.518 641.177 603.618C641.177 604.762 642.695 605.224 643.927 605.466C646.567 605.972 648.525 606.698 648.525 609.03C648.525 611.296 646.171 612.264 643.971 612.264C641.199 612.264 639.087 610.746 638.911 608.326L640.891 608.194C641.133 609.58 642.233 610.46 643.971 610.46C645.071 610.46 646.545 610.108 646.545 608.92C646.545 607.534 644.917 607.402 643.597 607.094C641.485 606.61 639.197 606.016 639.197 603.728C639.197 601.484 641.001 600.076 643.685 600.076C646.017 600.076 647.931 601.55 648.305 603.816L646.325 603.948ZM650.598 609.58H652.996V612H650.598V609.58ZM663.295 604.256C663.053 602.76 661.799 601.88 660.413 601.88C658.279 601.88 657.047 603.486 657.047 606.17C657.047 608.854 658.279 610.46 660.413 610.46C661.865 610.46 663.119 609.514 663.383 607.864L665.385 607.996C665.011 610.636 662.877 612.264 660.413 612.264C657.179 612.264 655.067 609.888 655.067 606.17C655.067 602.452 657.179 600.076 660.413 600.076C662.789 600.076 664.967 601.616 665.275 604.124L663.295 604.256ZM672.573 612.264C669.339 612.264 667.227 609.888 667.227 606.17C667.227 602.452 669.339 600.076 672.573 600.076C675.807 600.076 677.919 602.452 677.919 606.17C677.919 609.888 675.807 612.264 672.573 612.264ZM669.207 606.17C669.207 608.854 670.439 610.46 672.573 610.46C674.707 610.46 675.939 608.854 675.939 606.17C675.939 603.486 674.707 601.88 672.573 601.88C670.439 601.88 669.207 603.486 669.207 606.17ZM680.608 600.34H682.324L682.39 602.276C682.94 600.868 684.128 600.076 685.734 600.076C687.428 600.076 688.638 600.956 689.144 602.496C689.65 600.934 690.86 600.076 692.686 600.076C695.04 600.076 696.404 601.682 696.404 604.498V612H694.512V605.026C694.512 602.936 693.698 601.748 692.29 601.748C690.486 601.748 689.452 602.936 689.452 605.026V612H687.56V605.026C687.56 602.98 686.724 601.748 685.338 601.748C683.556 601.748 682.5 602.98 682.5 605.026V612H680.608V600.34Z" fill="#DFDFDF"/>
<path d="M342.976 331.384C338.104 331.384 335.176 328 335.176 322.504C335.176 316.96 338.104 313.576 342.976 313.576C347.848 313.576 350.776 316.96 350.776 322.504C350.776 328 347.848 331.384 342.976 331.384ZM337.384 322.504C337.384 326.728 339.472 329.32 342.976 329.32C346.48 329.32 348.568 326.728 348.568 322.504C348.568 318.232 346.48 315.64 342.976 315.64C339.472 315.64 337.384 318.232 337.384 322.504ZM353.404 318.28H355.276L355.348 320.464C355.996 318.76 357.484 317.992 359.236 317.992C362.14 317.992 363.532 320.128 363.532 322.816V331H361.468V323.392C361.468 321.064 360.7 319.816 358.804 319.816C356.788 319.816 355.468 321.064 355.468 323.392V331H353.404V318.28ZM366.23 324.64C366.23 320.584 368.534 317.992 372.062 317.992C374.846 317.992 377.366 319.792 377.582 324.352L377.606 325.288H368.414C368.606 327.832 369.902 329.32 372.062 329.32C373.406 329.32 374.63 328.552 375.206 327.232L377.414 327.4C376.67 329.8 374.51 331.288 372.062 331.288C368.534 331.288 366.23 328.696 366.23 324.64ZM368.462 323.464H375.35C374.99 320.824 373.574 319.96 372.062 319.96C370.07 319.96 368.798 321.256 368.462 323.464ZM393.07 313.96C396.886 313.96 399.118 315.88 399.118 319.12C399.118 322.432 396.886 324.4 393.07 324.4H389.062V331H386.95V313.96H393.07ZM389.062 322.336H393.07C395.638 322.336 396.91 321.256 396.91 319.12C396.91 317.056 395.638 316.024 393.07 316.024H389.062V322.336ZM402.295 313.96H404.359V328.408C404.359 328.936 404.599 329.176 405.127 329.176H406.231V331H404.791C403.303 331 402.295 329.992 402.295 328.504V313.96ZM408.539 322.024C409.043 319.552 411.035 317.992 413.747 317.992C417.035 317.992 418.883 319.912 418.883 323.32V328.408C418.883 328.936 419.123 329.176 419.651 329.176H420.179V331H419.291C417.995 331 416.843 330.592 416.843 329.056C416.315 330.208 414.923 331.288 412.907 331.288C410.387 331.288 408.323 329.944 408.323 327.664C408.323 325.024 410.291 324.376 413.123 323.824L416.819 323.104C416.795 320.992 415.787 319.96 413.747 319.96C412.163 319.96 411.107 320.752 410.723 322.192L408.539 322.024ZM410.483 327.664C410.483 328.648 411.323 329.464 413.171 329.464C415.235 329.464 416.867 328.024 416.867 325.048V324.928L413.891 325.456C412.019 325.792 410.483 325.888 410.483 327.664ZM422.996 315.4H425.06V318.28H428.468V320.104H425.06V327.592C425.06 328.648 425.564 329.176 426.572 329.176H428.42V331H426.572C424.268 331 422.996 329.776 422.996 327.592V320.104H421.148V318.28H422.996V315.4ZM432.511 317.488C432.511 315.352 433.591 313.96 435.967 313.96H437.935V315.784H435.967C435.151 315.784 434.575 316.432 434.575 317.488V318.28H437.767V320.104H434.575V331H432.511V320.104H430.807V318.28H432.511V317.488ZM445.187 331.288C441.659 331.288 439.355 328.696 439.355 324.64C439.355 320.584 441.659 317.992 445.187 317.992C448.715 317.992 451.019 320.584 451.019 324.64C451.019 328.696 448.715 331.288 445.187 331.288ZM441.515 324.64C441.515 327.568 442.859 329.32 445.187 329.32C447.515 329.32 448.859 327.568 448.859 324.64C448.859 321.712 447.515 319.96 445.187 319.96C442.859 319.96 441.515 321.712 441.515 324.64ZM453.951 318.28H455.775L455.847 320.56C456.255 319 457.191 318.28 458.847 318.28H460.095V320.104H458.847C456.903 320.104 456.015 321.232 456.015 323.416V331H453.951V318.28ZM462.412 318.28H464.284L464.356 320.392C464.956 318.856 466.252 317.992 468.004 317.992C469.852 317.992 471.172 318.952 471.724 320.632C472.276 318.928 473.596 317.992 475.588 317.992C478.156 317.992 479.644 319.744 479.644 322.816V331H477.58V323.392C477.58 321.112 476.692 319.816 475.156 319.816C473.188 319.816 472.06 321.112 472.06 323.392V331H469.996V323.392C469.996 321.16 469.084 319.816 467.572 319.816C465.628 319.816 464.476 321.16 464.476 323.392V331H462.412V318.28ZM482.691 328.36H485.307V331H482.691V328.36ZM494.646 313.96H505.374V316.024H496.758V321.448H505.086V323.464H496.758V328.936H505.566V331H494.646V313.96ZM508.842 318.28H510.714L510.786 320.464C511.434 318.76 512.922 317.992 514.674 317.992C517.578 317.992 518.97 320.128 518.97 322.816V331H516.906V323.392C516.906 321.064 516.138 319.816 514.242 319.816C512.226 319.816 510.906 321.064 510.906 323.392V331H508.842V318.28ZM532.995 313.96V331H531.123L531.051 329.224C530.355 330.496 528.819 331.288 527.043 331.288C523.731 331.288 521.667 328.72 521.667 324.64C521.667 320.56 523.731 317.992 527.043 317.992C528.747 317.992 530.235 318.736 530.931 319.912V313.96H532.995ZM523.827 324.64C523.827 327.52 525.243 329.32 527.475 329.32C529.707 329.32 531.123 327.52 531.123 324.64C531.123 321.712 529.707 319.864 527.475 319.864C525.243 319.864 523.827 321.712 523.827 324.64ZM536.826 313.96H538.89V328.408C538.89 328.936 539.13 329.176 539.658 329.176H540.762V331H539.322C537.834 331 536.826 329.992 536.826 328.504V313.96ZM542.62 324.64C542.62 320.584 544.924 317.992 548.452 317.992C551.236 317.992 553.756 319.792 553.972 324.352L553.996 325.288H544.804C544.996 327.832 546.292 329.32 548.452 329.32C549.796 329.32 551.02 328.552 551.596 327.232L553.804 327.4C553.06 329.8 550.9 331.288 548.452 331.288C544.924 331.288 542.62 328.696 542.62 324.64ZM544.852 323.464H551.74C551.38 320.824 549.964 319.96 548.452 319.96C546.46 319.96 545.188 321.256 544.852 323.464ZM564.349 322.216C564.061 320.8 562.645 319.96 561.253 319.96C559.861 319.96 558.733 320.656 558.733 321.856C558.733 323.104 560.389 323.608 561.733 323.872C564.613 324.424 566.749 325.216 566.749 327.76C566.749 330.232 564.181 331.288 561.781 331.288C558.757 331.288 556.453 329.632 556.261 326.992L558.421 326.848C558.685 328.36 559.885 329.32 561.781 329.32C562.981 329.32 564.589 328.936 564.589 327.64C564.589 326.128 562.813 325.984 561.373 325.648C559.069 325.12 556.573 324.472 556.573 321.976C556.573 319.528 558.541 317.992 561.469 317.992C564.013 317.992 566.101 319.6 566.509 322.072L564.349 322.216ZM577.099 322.216C576.811 320.8 575.395 319.96 574.003 319.96C572.611 319.96 571.483 320.656 571.483 321.856C571.483 323.104 573.139 323.608 574.483 323.872C577.363 324.424 579.499 325.216 579.499 327.76C579.499 330.232 576.931 331.288 574.531 331.288C571.507 331.288 569.203 329.632 569.011 326.992L571.171 326.848C571.435 328.36 572.635 329.32 574.531 329.32C575.731 329.32 577.339 328.936 577.339 327.64C577.339 326.128 575.563 325.984 574.123 325.648C571.819 325.12 569.323 324.472 569.323 321.976C569.323 319.528 571.291 317.992 574.219 317.992C576.763 317.992 578.851 319.6 579.259 322.072L577.099 322.216ZM594.961 313.96C598.777 313.96 601.009 315.88 601.009 319.12C601.009 322.432 598.777 324.4 594.961 324.4H590.953V331H588.841V313.96H594.961ZM590.953 322.336H594.961C597.529 322.336 598.801 321.256 598.801 319.12C598.801 317.056 597.529 316.024 594.961 316.024H590.953V322.336ZM603.951 318.28H605.775L605.847 320.56C606.255 319 607.191 318.28 608.847 318.28H610.095V320.104H608.847C606.903 320.104 606.015 321.232 606.015 323.416V331H603.951V318.28ZM617.218 331.288C613.69 331.288 611.386 328.696 611.386 324.64C611.386 320.584 613.69 317.992 617.218 317.992C620.746 317.992 623.05 320.584 623.05 324.64C623.05 328.696 620.746 331.288 617.218 331.288ZM613.546 324.64C613.546 327.568 614.89 329.32 617.218 329.32C619.546 329.32 620.89 327.568 620.89 324.64C620.89 321.712 619.546 319.96 617.218 319.96C614.89 319.96 613.546 321.712 613.546 324.64ZM626.855 317.488C626.855 315.352 627.935 313.96 630.311 313.96H632.279V315.784H630.311C629.495 315.784 628.919 316.432 628.919 317.488V318.28H632.111V320.104H628.919V331H626.855V320.104H625.151V318.28H626.855V317.488ZM633.698 324.64C633.698 320.584 636.002 317.992 639.53 317.992C642.314 317.992 644.834 319.792 645.05 324.352L645.074 325.288H635.882C636.074 327.832 637.37 329.32 639.53 329.32C640.874 329.32 642.098 328.552 642.674 327.232L644.882 327.4C644.138 329.8 641.978 331.288 639.53 331.288C636.002 331.288 633.698 328.696 633.698 324.64ZM635.93 323.464H642.818C642.458 320.824 641.042 319.96 639.53 319.96C637.538 319.96 636.266 321.256 635.93 323.464ZM655.427 322.216C655.139 320.8 653.723 319.96 652.331 319.96C650.939 319.96 649.811 320.656 649.811 321.856C649.811 323.104 651.467 323.608 652.811 323.872C655.691 324.424 657.827 325.216 657.827 327.76C657.827 330.232 655.259 331.288 652.859 331.288C649.835 331.288 647.531 329.632 647.339 326.992L649.499 326.848C649.763 328.36 650.963 329.32 652.859 329.32C654.059 329.32 655.667 328.936 655.667 327.64C655.667 326.128 653.891 325.984 652.451 325.648C650.147 325.12 647.651 324.472 647.651 321.976C647.651 319.528 649.619 317.992 652.547 317.992C655.091 317.992 657.179 319.6 657.587 322.072L655.427 322.216ZM668.177 322.216C667.889 320.8 666.473 319.96 665.081 319.96C663.689 319.96 662.561 320.656 662.561 321.856C662.561 323.104 664.217 323.608 665.561 323.872C668.441 324.424 670.577 325.216 670.577 327.76C670.577 330.232 668.009 331.288 665.609 331.288C662.585 331.288 660.281 329.632 660.089 326.992L662.249 326.848C662.513 328.36 663.713 329.32 665.609 329.32C666.809 329.32 668.417 328.936 668.417 327.64C668.417 326.128 666.641 325.984 665.201 325.648C662.897 325.12 660.401 324.472 660.401 321.976C660.401 319.528 662.369 317.992 665.297 317.992C667.841 317.992 669.929 319.6 670.337 322.072L668.177 322.216ZM673.162 318.28H675.226V331H673.162V318.28ZM673.114 316.288V313.96H675.274V316.288H673.114ZM684.108 331.288C680.58 331.288 678.276 328.696 678.276 324.64C678.276 320.584 680.58 317.992 684.108 317.992C687.636 317.992 689.94 320.584 689.94 324.64C689.94 328.696 687.636 331.288 684.108 331.288ZM680.436 324.64C680.436 327.568 681.78 329.32 684.108 329.32C686.436 329.32 687.78 327.568 687.78 324.64C687.78 321.712 686.436 319.96 684.108 319.96C681.78 319.96 680.436 321.712 680.436 324.64ZM692.873 318.28H694.745L694.817 320.464C695.465 318.76 696.953 317.992 698.705 317.992C701.609 317.992 703.001 320.128 703.001 322.816V331H700.937V323.392C700.937 321.064 700.169 319.816 698.273 319.816C696.257 319.816 694.937 321.064 694.937 323.392V331H692.873V318.28ZM706.266 322.024C706.77 319.552 708.762 317.992 711.474 317.992C714.762 317.992 716.61 319.912 716.61 323.32V328.408C716.61 328.936 716.85 329.176 717.378 329.176H717.906V331H717.018C715.722 331 714.57 330.592 714.57 329.056C714.042 330.208 712.65 331.288 710.634 331.288C708.114 331.288 706.05 329.944 706.05 327.664C706.05 325.024 708.018 324.376 710.85 323.824L714.546 323.104C714.522 320.992 713.514 319.96 711.474 319.96C709.89 319.96 708.834 320.752 708.45 322.192L706.266 322.024ZM708.21 327.664C708.21 328.648 709.05 329.464 710.898 329.464C712.962 329.464 714.594 328.024 714.594 325.048V324.928L711.618 325.456C709.746 325.792 708.21 325.888 708.21 327.664ZM720.67 313.96H722.734V328.408C722.734 328.936 722.974 329.176 723.502 329.176H724.606V331H723.166C721.678 331 720.67 329.992 720.67 328.504V313.96ZM739.898 313.96C743.714 313.96 745.946 315.88 745.946 319.12C745.946 322.432 743.714 324.4 739.898 324.4H735.89V331H733.778V313.96H739.898ZM735.89 322.336H739.898C742.466 322.336 743.738 321.256 743.738 319.12C743.738 317.056 742.466 316.024 739.898 316.024H735.89V322.336ZM753.554 331.288C750.026 331.288 747.722 328.696 747.722 324.64C747.722 320.584 750.026 317.992 753.554 317.992C757.082 317.992 759.386 320.584 759.386 324.64C759.386 328.696 757.082 331.288 753.554 331.288ZM749.882 324.64C749.882 327.568 751.226 329.32 753.554 329.32C755.882 329.32 757.226 327.568 757.226 324.64C757.226 321.712 755.882 319.96 753.554 319.96C751.226 319.96 749.882 321.712 749.882 324.64ZM769.732 322.216C769.444 320.8 768.028 319.96 766.636 319.96C765.244 319.96 764.116 320.656 764.116 321.856C764.116 323.104 765.772 323.608 767.116 323.872C769.996 324.424 772.132 325.216 772.132 327.76C772.132 330.232 769.564 331.288 767.164 331.288C764.14 331.288 761.836 329.632 761.644 326.992L763.804 326.848C764.068 328.36 765.268 329.32 767.164 329.32C768.364 329.32 769.972 328.936 769.972 327.64C769.972 326.128 768.196 325.984 766.756 325.648C764.452 325.12 761.956 324.472 761.956 321.976C761.956 319.528 763.924 317.992 766.852 317.992C769.396 317.992 771.484 319.6 771.892 322.072L769.732 322.216ZM782.482 322.216C782.194 320.8 780.778 319.96 779.386 319.96C777.994 319.96 776.866 320.656 776.866 321.856C776.866 323.104 778.522 323.608 779.866 323.872C782.746 324.424 784.882 325.216 784.882 327.76C784.882 330.232 782.314 331.288 779.914 331.288C776.89 331.288 774.586 329.632 774.394 326.992L776.554 326.848C776.818 328.36 778.018 329.32 779.914 329.32C781.114 329.32 782.722 328.936 782.722 327.64C782.722 326.128 780.946 325.984 779.506 325.648C777.202 325.12 774.706 324.472 774.706 321.976C774.706 319.528 776.674 317.992 779.602 317.992C782.146 317.992 784.234 319.6 784.642 322.072L782.482 322.216ZM787.467 318.28H789.531V331H787.467V318.28ZM787.419 316.288V313.96H789.579V316.288H787.419ZM792.647 313.96H794.711V319.912C795.407 318.736 796.895 317.992 798.599 317.992C801.911 317.992 803.975 320.56 803.975 324.64C803.975 328.72 801.911 331.288 798.599 331.288C796.823 331.288 795.287 330.496 794.591 329.224L794.519 331H792.647V313.96ZM794.519 324.64C794.519 327.52 795.935 329.32 798.167 329.32C800.399 329.32 801.815 327.52 801.815 324.64C801.815 321.712 800.399 319.864 798.167 319.864C795.935 319.864 794.519 321.712 794.519 324.64ZM806.545 318.28H808.609V331H806.545V318.28ZM806.497 316.288V313.96H808.657V316.288H806.497ZM812.451 313.96H814.515V328.408C814.515 328.936 814.755 329.176 815.283 329.176H816.387V331H814.947C813.459 331 812.451 329.992 812.451 328.504V313.96ZM819.272 318.28H821.336V331H819.272V318.28ZM819.224 316.288V313.96H821.384V316.288H819.224ZM825.465 315.4H827.529V318.28H830.937V320.104H827.529V327.592C827.529 328.648 828.033 329.176 829.041 329.176H830.889V331H829.041C826.737 331 825.465 329.776 825.465 327.592V320.104H823.617V318.28H825.465V315.4ZM833.756 318.28H835.82V331H833.756V318.28ZM833.708 316.288V313.96H835.868V316.288H833.708ZM838.87 324.64C838.87 320.584 841.174 317.992 844.702 317.992C847.486 317.992 850.006 319.792 850.222 324.352L850.246 325.288H841.054C841.246 327.832 842.542 329.32 844.702 329.32C846.046 329.32 847.27 328.552 847.846 327.232L850.054 327.4C849.31 329.8 847.15 331.288 844.702 331.288C841.174 331.288 838.87 328.696 838.87 324.64ZM841.102 323.464H847.99C847.63 320.824 846.214 319.96 844.702 319.96C842.71 319.96 841.438 321.256 841.102 323.464ZM860.599 322.216C860.311 320.8 858.895 319.96 857.503 319.96C856.111 319.96 854.983 320.656 854.983 321.856C854.983 323.104 856.639 323.608 857.983 323.872C860.863 324.424 862.999 325.216 862.999 327.76C862.999 330.232 860.431 331.288 858.031 331.288C855.007 331.288 852.703 329.632 852.511 326.992L854.671 326.848C854.935 328.36 856.135 329.32 858.031 329.32C859.231 329.32 860.839 328.936 860.839 327.64C860.839 326.128 859.063 325.984 857.623 325.648C855.319 325.12 852.823 324.472 852.823 321.976C852.823 319.528 854.791 317.992 857.719 317.992C860.263 317.992 862.351 319.6 862.759 322.072L860.599 322.216Z" fill="#DFDFDF"/>
</svg>
